<svg width="60" height="61" viewBox="0 0 60 61" fill="none" xmlns="http://www.w3.org/2000/svg">
<path fill-rule="evenodd" clip-rule="evenodd" d="M4.80127 7.17654C2.1945 3.87458 0.0380573 1.13867 0.0190296 1.08835C-0.00634193 1.01288 0.894293 1.0003 6.41226 1.0003H12.8435L21.4059 11.9188C26.1184 17.9252 29.9683 22.875 29.9619 22.9128C29.9556 22.9505 28.5539 24.7744 26.8351 26.9632C25.1226 29.1456 23.7209 30.9696 23.7209 31.001C23.7209 31.0387 25.1163 32.8438 26.8161 35.0137C28.5158 37.1835 29.9302 38.9949 29.9619 39.0389C29.9936 39.0892 27.1459 42.7686 21.463 50.014C16.7632 56.0079 12.8816 60.9262 12.8499 60.9514C12.7484 61.0206 0 61.0143 0 60.9451C0 60.9137 5.32135 54.1714 11.8287 45.9573C18.3298 37.7496 23.6512 31.0136 23.6385 30.9884C23.6321 30.9633 22.7569 29.8437 21.6913 28.5041C18.463 24.4222 9.82452 13.5163 4.80127 7.17654ZM46.8964 1.48313C46.6871 1.74729 45.5391 3.20015 44.3594 4.70333C43.1734 6.20651 41.3341 8.5399 40.2685 9.89214C32.8985 19.2446 30.1966 22.6786 30.1269 22.7918C30.0508 22.9113 30.2791 23.2195 33.1966 26.8925C34.9281 29.0813 36.3615 30.9052 36.3806 30.9555C36.3996 31.0058 35.1184 32.6726 33.2347 35.05C31.4842 37.2513 30.0698 39.0941 30.0888 39.1381C30.1015 39.1821 31.2432 40.6413 32.6131 42.3835C34.9028 45.2892 42.0444 54.3523 45.6977 58.9814C46.5286 60.038 47.2389 60.9185 47.277 60.9437C47.3658 61.0066 59.9176 61.0066 59.9556 60.9437C59.9746 60.9185 58.7252 59.3021 57.184 57.3398C55.2253 54.8494 52.5698 51.477 47.3507 44.8487L41.74 37.723C36.7231 31.3518 36.4694 31.0247 36.4694 30.9933C36.4694 30.9744 38.1311 28.8549 40.1607 26.2762C41.3087 24.817 42.1657 23.7281 42.9994 22.6688C44.8142 20.3629 46.5185 18.1974 50.8732 12.6595C54.0317 8.64682 58.389 3.1121 59.4736 1.741C59.7653 1.36992 60 1.04916 60 1.03029C60 1.01142 57.1396 0.992554 53.6448 0.992554H47.2833L46.8964 1.48313Z" fill="white"/>
</svg>
